<svg xmlns="http://www.w3.org/2000/svg" width="1200" height="720" viewBox="0 0 1200 720" role="img" aria-label="TPAIRREDUCESUM tile operation diagram">
<defs>
  <marker id="arrow" markerWidth="8" markerHeight="8" refX="7" refY="4" orient="auto"><path d="M0,0 L0,8 L8,4 z" fill="#2D8B57"/></marker>
  <marker id="axisArrow" markerWidth="8" markerHeight="8" refX="7" refY="4" orient="auto"><path d="M0,0 L0,8 L8,4 z" fill="#64748b"/></marker>
  <marker id="pairArrow0" markerWidth="8" markerHeight="8" refX="7" refY="4" orient="auto"><path d="M0,0 L0,8 L8,4 z" fill="#2563eb"/></marker>
  <marker id="pairArrow1" markerWidth="8" markerHeight="8" refX="7" refY="4" orient="auto"><path d="M0,0 L0,8 L8,4 z" fill="#ea580c"/></marker>
</defs>
<style>
svg { font-family: Arial, Helvetica, sans-serif; }
.title { font-size: 28px; font-weight: 700; fill: #0f172a; }
.subtitle { font-size: 13px; fill: #334155; }
.meta { font-size: 11px; fill: #64748b; }
.frame { fill: white; }
.panel { fill: #E8F5E9; stroke: #e2e8f0; stroke-width: 1.5; rx: 14; }
.tileLabel { font-size: 13px; font-weight: 700; fill: #0f172a; }
.tileBorder { fill: none; stroke: #475569; stroke-width: 1.5; }
.cell { fill: #ffffff; stroke: #94a3b8; stroke-width: 1; }
.cellPair0 { fill: #dbeafe; stroke: #94a3b8; stroke-width: 1; }
.cellPair1 { fill: #fed7aa; stroke: #94a3b8; stroke-width: 1; }
.cellResult { fill: #d4edda; stroke: #2D8B57; stroke-width: 1.5; }
.cellZero { fill: #e2e8f0; stroke: #94a3b8; stroke-width: 1; }
.cellMasked { fill: #f1f5f9; stroke: #94a3b8; stroke-width: 1; }
.cellText { font-family: ui-monospace, SFMono-Regular, Menlo, Monaco, Consolas, monospace; font-size: 10px; fill: #0f172a; }
.arrow { stroke-width: 1.5; fill: none; stroke-linejoin: round; stroke-linecap: round; }
.axisLine { stroke: #64748b; stroke-width: 1.5; fill: none; }
.axisText { font-size: 9px; fill: #64748b; font-weight: 700; }
.opBox { fill: #ffffff; stroke: #2D8B57; stroke-width: 2; rx: 10; }
.opText { font-size: 14px; font-weight: 800; fill: #0f172a; }
.validBox { fill: none; stroke-width: 2; stroke-dasharray: 6 4; }
.pairBracket { stroke: #475569; stroke-width: 1.5; fill: none; }
.pairLabel { font-size: 9px; fill: #475569; font-weight: 600; }
.halfLabel { font-size: 11px; fill: #334155; font-weight: 600; }
.resultLabel { font-size: 11px; fill: #2D8B57; font-weight: 600; }
.unspecLabel { font-size: 10px; fill: #64748b; font-weight: 600; }
.splitLine { stroke: #475569; stroke-width: 2; stroke-dasharray: 4 2; }
</style>
<rect x="0" y="0" width="1200" height="720" class="frame" />
<rect x="24" y="24" width="1152" height="672" class="panel" />
<text x="40" y="46" class="title">TPAIRREDUCESUM</text>
<text x="40" y="72" class="subtitle">Pair-reduction sum: add every 2 adjacent elements, write results to the lower half of dst.</text>
<text x="40" y="92" class="meta">dst[i,k] = src0[i,2k] + src0[i,2k+1];  positions ⌈Cv/2⌉…Cv−1 in dst are filled with 0; inactive elements are also 0</text>
<text x="1160" y="92" class="meta" text-anchor="end">Legend: blue=even index; orange=odd index; green=result; gray=0</text>
<line x1="36" y1="104" x2="1164" y2="104" stroke="#e2e8f0" stroke-width="1.5" />
<text x="600" y="130" class="subtitle" text-anchor="middle" fill="#2D8B57">dst[i,k] = src0[i, 2k] + src0[i, 2k+1]</text>

<text x="225" y="168" class="tileLabel" text-anchor="middle">src0</text>
<rect x="92" y="180" width="264" height="132" class="tileBorder" />
<rect x="92" y="180" width="33" height="22" class="cell" />
<rect x="125" y="180" width="33" height="22" class="cell" />
<rect x="158" y="180" width="33" height="22" class="cell" />
<rect x="191" y="180" width="33" height="22" class="cell" />
<rect x="224" y="180" width="33" height="22" class="cell" />
<rect x="257" y="180" width="33" height="22" class="cell" />
<rect x="290" y="180" width="33" height="22" class="cell" />
<rect x="323" y="180" width="33" height="22" class="cell" />
<rect x="92" y="202" width="33" height="22" class="cellPair0" />
<rect x="125" y="202" width="33" height="22" class="cellPair1" />
<rect x="158" y="202" width="33" height="22" class="cellPair0" />
<rect x="191" y="202" width="33" height="22" class="cellPair1" />
<rect x="224" y="202" width="33" height="22" class="cellPair0" />
<rect x="257" y="202" width="33" height="22" class="cellPair1" />
<rect x="290" y="202" width="33" height="22" class="cellPair0" />
<rect x="323" y="202" width="33" height="22" class="cellPair1" />
<text x="108" y="217" class="cellText" text-anchor="middle">a&#x2080;</text>
<text x="141" y="217" class="cellText" text-anchor="middle">a&#x2081;</text>
<text x="174" y="217" class="cellText" text-anchor="middle">a&#x2082;</text>
<text x="207" y="217" class="cellText" text-anchor="middle">a&#x2083;</text>
<text x="240" y="217" class="cellText" text-anchor="middle">a&#x2084;</text>
<text x="273" y="217" class="cellText" text-anchor="middle">a&#x2085;</text>
<text x="306" y="217" class="cellText" text-anchor="middle">a&#x2086;</text>
<text x="339" y="217" class="cellText" text-anchor="middle">a&#x2087;</text>
<rect x="92" y="224" width="33" height="22" class="cellPair0" />
<rect x="125" y="224" width="33" height="22" class="cellPair1" />
<rect x="158" y="224" width="33" height="22" class="cellPair0" />
<rect x="191" y="224" width="33" height="22" class="cellPair1" />
<rect x="224" y="224" width="33" height="22" class="cellPair0" />
<rect x="257" y="224" width="33" height="22" class="cellPair1" />
<rect x="290" y="224" width="33" height="22" class="cellPair0" />
<rect x="323" y="224" width="33" height="22" class="cellPair1" />
<rect x="92" y="246" width="33" height="22" class="cell" />
<rect x="125" y="246" width="33" height="22" class="cell" />
<rect x="158" y="246" width="33" height="22" class="cell" />
<rect x="191" y="246" width="33" height="22" class="cell" />
<rect x="224" y="246" width="33" height="22" class="cell" />
<rect x="257" y="246" width="33" height="22" class="cell" />
<rect x="290" y="246" width="33" height="22" class="cell" />
<rect x="323" y="246" width="33" height="22" class="cell" />
<rect x="92" y="268" width="33" height="22" class="cell" />
<rect x="125" y="268" width="33" height="22" class="cell" />
<rect x="158" y="268" width="33" height="22" class="cell" />
<rect x="191" y="268" width="33" height="22" class="cell" />
<rect x="224" y="268" width="33" height="22" class="cell" />
<rect x="257" y="268" width="33" height="22" class="cell" />
<rect x="290" y="268" width="33" height="22" class="cell" />
<rect x="323" y="268" width="33" height="22" class="cell" />
<rect x="92" y="290" width="33" height="22" class="cellMasked" />
<rect x="125" y="290" width="33" height="22" class="cellMasked" />
<rect x="158" y="290" width="33" height="22" class="cellMasked" />
<rect x="191" y="290" width="33" height="22" class="cellMasked" />
<rect x="224" y="290" width="33" height="22" class="cellMasked" />
<rect x="257" y="290" width="33" height="22" class="cellMasked" />
<rect x="290" y="290" width="33" height="22" class="cellMasked" />
<rect x="323" y="290" width="33" height="22" class="cellMasked" />
<rect x="92" y="180" width="264" height="88" class="validBox" stroke="#2563eb" />
<text x="96" y="264" class="axisText" fill="#2563eb">Rv</text>
<text x="348" y="192" class="axisText" text-anchor="end" fill="#2563eb">Cv</text>
<path d="M 102 190 L 346 190" class="axisLine" marker-end="url(#axisArrow)" />
<path d="M 102 190 L 102 256" class="axisLine" marker-end="url(#axisArrow)" />
<text x="348" y="194" class="axisText">c</text>
<text x="100" y="258" class="axisText" text-anchor="end">r</text>

<text x="96" y="238" class="pairLabel">Pair 0</text>
<text x="158" y="238" class="pairLabel">Pair 1</text>
<text x="224" y="238" class="pairLabel">Pair 2</text>
<text x="290" y="238" class="pairLabel">Pair 3</text>

<rect x="540" y="280" width="120" height="36" class="opBox" />
<text x="600" y="303" class="opText" text-anchor="middle">TPAIRREDUCE&#x200B;SUM</text>
<path d="M 225 290 L 225 298 L 540 298" class="arrow" stroke="#2D8B57" marker-end="url(#arrow)" />
<path d="M 600 316 L 600 360" class="arrow" stroke="#2D8B57" marker-end="url(#arrow)" />

<text x="855" y="168" class="tileLabel" text-anchor="middle">dst</text>
<rect x="822" y="180" width="264" height="132" class="tileBorder" />
<rect x="822" y="180" width="33" height="22" class="cellResult" />
<rect x="855" y="180" width="33" height="22" class="cellResult" />
<rect x="888" y="180" width="33" height="22" class="cellResult" />
<rect x="921" y="180" width="33" height="22" class="cellResult" />
<rect x="954" y="180" width="33" height="22" class="cellZero" />
<rect x="987" y="180" width="33" height="22" class="cellZero" />
<rect x="1020" y="180" width="33" height="22" class="cellZero" />
<rect x="1053" y="180" width="33" height="22" class="cellZero" />
<rect x="822" y="202" width="33" height="22" class="cellResult" />
<rect x="855" y="202" width="33" height="22" class="cellResult" />
<rect x="888" y="202" width="33" height="22" class="cellResult" />
<rect x="921" y="202" width="33" height="22" class="cellResult" />
<rect x="954" y="202" width="33" height="22" class="cellZero" />
<rect x="987" y="202" width="33" height="22" class="cellZero" />
<rect x="1020" y="202" width="33" height="22" class="cellZero" />
<rect x="1053" y="202" width="33" height="22" class="cellZero" />
<text x="838" y="217" class="cellText" text-anchor="middle" fill="#2D8B57">a&#x2080;+a&#x2081;</text>
<text x="871" y="217" class="cellText" text-anchor="middle" fill="#2D8B57">a&#x2082;+a&#x2083;</text>
<text x="904" y="217" class="cellText" text-anchor="middle" fill="#2D8B57">a&#x2084;+a&#x2085;</text>
<text x="937" y="217" class="cellText" text-anchor="middle" fill="#2D8B57">a&#x2086;+a&#x2087;</text>
<text x="970" y="217" class="unspecLabel" text-anchor="middle">0</text>
<text x="1003" y="217" class="unspecLabel" text-anchor="middle">0</text>
<text x="1036" y="217" class="unspecLabel" text-anchor="middle">0</text>
<text x="1069" y="217" class="unspecLabel" text-anchor="middle">0</text>
<rect x="822" y="224" width="33" height="22" class="cellResult" />
<rect x="855" y="224" width="33" height="22" class="cellResult" />
<rect x="888" y="224" width="33" height="22" class="cellResult" />
<rect x="921" y="224" width="33" height="22" class="cellResult" />
<rect x="954" y="224" width="33" height="22" class="cellZero" />
<rect x="987" y="224" width="33" height="22" class="cellZero" />
<rect x="1020" y="224" width="33" height="22" class="cellZero" />
<rect x="1053" y="224" width="33" height="22" class="cellZero" />
<rect x="822" y="246" width="33" height="22" class="cell" />
<rect x="855" y="246" width="33" height="22" class="cell" />
<rect x="888" y="246" width="33" height="22" class="cell" />
<rect x="921" y="246" width="33" height="22" class="cell" />
<rect x="954" y="246" width="33" height="22" class="cell" />
<rect x="987" y="246" width="33" height="22" class="cell" />
<rect x="1020" y="246" width="33" height="22" class="cell" />
<rect x="1053" y="246" width="33" height="22" class="cell" />
<rect x="822" y="268" width="33" height="22" class="cell" />
<rect x="855" y="268" width="33" height="22" class="cell" />
<rect x="888" y="268" width="33" height="22" class="cell" />
<rect x="921" y="268" width="33" height="22" class="cell" />
<rect x="954" y="268" width="33" height="22" class="cell" />
<rect x="987" y="268" width="33" height="22" class="cell" />
<rect x="1020" y="268" width="33" height="22" class="cell" />
<rect x="1053" y="268" width="33" height="22" class="cell" />
<rect x="822" y="290" width="33" height="22" class="cellMasked" />
<rect x="855" y="290" width="33" height="22" class="cellMasked" />
<rect x="888" y="290" width="33" height="22" class="cellMasked" />
<rect x="921" y="290" width="33" height="22" class="cellMasked" />
<rect x="954" y="290" width="33" height="22" class="cellMasked" />
<rect x="987" y="290" width="33" height="22" class="cellMasked" />
<rect x="1020" y="290" width="33" height="22" class="cellMasked" />
<rect x="1053" y="290" width="33" height="22" class="cellMasked" />
<rect x="822" y="180" width="264" height="88" class="validBox" stroke="#2D8B57" />
<text x="826" y="264" class="axisText" fill="#2D8B57">Rv</text>
<text x="1078" y="192" class="axisText" text-anchor="end" fill="#2D8B57">Cv</text>
<path d="M 832 190 L 1076 190" class="axisLine" marker-end="url(#axisArrow)" />
<path d="M 832 190 L 832 256" class="axisLine" marker-end="url(#axisArrow)" />
<text x="1078" y="194" class="axisText">c</text>
<text x="830" y="258" class="axisText" text-anchor="end">r</text>

<line x1="954" y1="180" x2="954" y2="268" class="splitLine" />
<text x="871" y="340" class="halfLabel" text-anchor="middle" fill="#2D8B57">Lower half: pair-reduced results</text>
<text x="1003" y="340" class="halfLabel" text-anchor="middle" fill="#64748b">Upper half: filled with 0</text>

<rect x="40" y="400" width="1120" height="280" fill: #f8fafc; stroke: #cbd5e1; stroke-width: 1.5; rx: 12" />
<rect x="40" y="400" width="1120" height="280" style="fill: #f8fafc; stroke: #cbd5e1; stroke-width: 1.5; rx: 12" />
<text x="56" y="424" style="font-size: 13px; font-weight: 700; fill: #0f172a;">Procedure (conceptual)</text>
<text x="56" y="450" style="font-family: ui-monospace, SFMono-Regular, Menlo, Monaco, Consolas, monospace; font-size: 11px; fill: #0f172a;" xml:space="preserve">
  <tspan x="56" dy="0">for r in 0..Rv-1:</tspan>
  <tspan x="56" dy="16">  halfCols = ceil(Cv / 2)</tspan>
  <tspan x="56" dy="16">  for k in 0..halfCols-1:</tspan>
  <tspan x="56" dy="16">    dst[r,k] = src0[r, 2k] + src0[r, 2k+1]   # pair-reduction sum</tspan>
  <tspan x="56" dy="16">  for j in halfCols..Cv-1:</tspan>
  <tspan x="56" dy="16">    dst[r,j] = 0                          # upper half is filled with 0</tspan>
</text>
<text x="56" y="540" style="font-size: 11px; fill: #64748b;">Constraints: dst and src0 same valid shape; DType = float or half; row-major layout.</text>
<text x="56" y="558" style="font-size: 11px; fill: #64748b;">Uses vcpadd instruction: adds every 2 adjacent elements and writes result to lower half of destination register.</text>

<text x="600" y="600" style="font-size: 13px; font-weight: 700; fill: #0f172a; text-anchor: middle;">Pair grouping (row r of src0)</text>
<rect x="420" y="610" width="360" height="30" style="fill: none; stroke: #94a3b8; stroke-width: 1; rx: 4" />
<rect x="420" y="610" width="45" height="30" class="cellPair0" />
<rect x="465" y="610" width="45" height="30" class="cellPair1" />
<rect x="510" y="610" width="45" height="30" class="cellPair0" />
<rect x="555" y="610" width="45" height="30" class="cellPair1" />
<rect x="600" y="610" width="45" height="30" class="cellPair0" />
<rect x="645" y="610" width="45" height="30" class="cellPair1" />
<rect x="690" y="610" width="45" height="30" class="cellPair0" />
<rect x="735" y="610" width="45" height="30" class="cellPair1" />
<text x="442" y="630" class="cellText" text-anchor="middle">2k</text>
<text x="487" y="630" class="cellText" text-anchor="middle">2k+1</text>
<text x="532" y="630" class="cellText" text-anchor="middle">2k</text>
<text x="577" y="630" class="cellText" text-anchor="middle">2k+1</text>
<text x="622" y="630" class="cellText" text-anchor="middle">2k</text>
<text x="667" y="630" class="cellText" text-anchor="middle">2k+1</text>
<text x="712" y="630" class="cellText" text-anchor="middle">2k</text>
<text x="757" y="630" class="cellText" text-anchor="middle">2k+1</text>
<text x="442" y="660" class="pairLabel" text-anchor="middle">k=0</text>
<text x="532" y="660" class="pairLabel" text-anchor="middle">k=1</text>
<text x="622" y="660" class="pairLabel" text-anchor="middle">k=2</text>
<text x="712" y="660" class="pairLabel" text-anchor="middle">k=3</text>

<path d="M 442 640 L 442 648 L 532 648 L 532 640" class="pairBracket" />
<path d="M 622 640 L 622 648 L 712 648 L 712 640" class="pairBracket" />
<text x="487" y="660" class="resultLabel" text-anchor="middle">&#x2192; dst[r,0]</text>
<text x="667" y="660" class="resultLabel" text-anchor="middle">&#x2192; dst[r,2]</text>
</svg>
